<?xml version="1.0"?>
<svg version="1.1" xmlns="http://www.w3.org/2000/svg" viewBox="183 89 402 309">
<path d="M0 0 C7.395 0.947 13.454 9.108 17.988 14.734 C27.96 27.765 33.079 41.434 36.234 57.414 C36.409 58.196 36.585 58.978 36.765 59.784 C39.532 75.287 37.872 92.446 33.234 107.414 C33.02 108.127 32.806 108.84 32.585 109.575 C29.034 121.151 24.44 135.129 15.234 143.414 C15.125 142.447 15.015 141.48 14.902 140.484 C12.693 122.345 7.075 106.824 -5.766 93.414 C-6.14 93.138 -6.14 93.138 -8.035 91.738 C-8.606 91.301 -9.177 90.864 -9.766 90.414 C-9.766 89.754 -9.766 89.094 -9.766 88.414 C-10.334 88.142 -10.903 87.87 -11.488 87.59 C-13.826 86.383 -15.987 85.018 -18.203 83.602 C-24.077 80.028 -30.304 77.703 -36.766 75.414 C-33.628 72.88 -30.381 71.186 -26.766 69.414 C-14.965 63.109 -4.412 53.716 -0.391 40.539 C1.396 31.251 0.197 23.353 -2.801 14.477 C-4.095 10.367 -4.625 6.718 -4.766 2.414 C-2.766 0.414 -2.766 0.414 0 0 Z " fill="#FFFFFF" transform="translate(480.765625,102.5859375)"></path>
<path d="M0 0 C4.071 4.008 6.073 8.44 6.625 14.125 C6.438 15.069 6.251 16.012 6.059 16.984 C5.516 20.913 6.374 23.48 7.562 27.25 C8.949 31.88 9.801 35.893 9.375 40.75 C9.009 47.987 12.057 54.216 14.868 60.741 C18.402 69.145 18.402 69.145 16.625 74.125 C13.239 76.947 10.914 77.255 6.625 77.125 C6.648 78.161 6.671 79.198 6.695 80.266 C6.714 81.635 6.732 83.005 6.75 84.375 C6.767 85.057 6.784 85.739 6.801 86.441 C6.838 90.298 6.446 92.766 4.625 96.125 C4.728 96.764 4.728 96.764 5.25 100 C5.754 103.343 5.619 104.138 4.188 107.438 C-1.237 113.127 -8.365 113.592 -15.836 114.5 C-18.375 115.125 -18.375 115.125 -20.375 118.125 C-21.63 122.741 -22.472 127.43 -23.375 132.125 C-23.604 132.977 -23.834 133.829 -24.07 134.707 C-26.055 143.951 -19.733 152.42 -15.212 160.1 C-12.375 164.94 -12.375 164.94 -12.375 167.125 C-34.112 168.322 -51.071 159.628 -70.017 149.747 C-75.11 147.108 -79.791 145.204 -85.375 143.875 C-86.056 143.712 -86.736 143.55 -87.438 143.382 C-92.721 142.164 -97.962 141.385 -103.375 141.125 C-102.749 139.449 -102.123 137.773 -101.496 136.098 C-100.951 134.641 -100.407 133.184 -99.864 131.727 C-98.613 128.378 -97.343 125.045 -96.004 121.73 C-93.608 115.797 -91.644 109.881 -90.062 103.688 C-89.891 103.025 -89.719 102.362 -89.542 101.68 C-88.14 95.911 -87.293 92.009 -90.324 86.73 C-90.508 86.437 -90.508 86.437 -91.435 84.951 C-93.003 81.905 -92.989 78.816 -93.188 75.438 C-93.79 68.433 -95.842 63.926 -99.688 57.973 C-105.957 47.392 -105.815 33.507 -103.188 21.812 C-98.852 7.003 -89.953 -2.99 -76.582 -10.364 C-71.346 -13.078 -66.153 -14.786 -60.375 -15.875 C-59.767 -15.999 -59.767 -15.999 -56.688 -16.625 C-37.187 -18.499 -15.332 -12.315 0 0 Z M-31.375 0.125 C-31.485 0.427 -31.485 0.427 -32.039 1.953 C-32.198 2.353 -32.198 2.353 -33 4.375 C-33.302 5.164 -33.603 5.953 -33.914 6.766 C-37.417 12.424 -43.21 13.858 -49.25 15.438 C-55.802 17.324 -61.141 19.476 -65.375 25.125 C-65.705 26.156 -66.035 27.188 -66.375 28.25 C-67.729 32.143 -69.882 33.034 -73.402 34.949 C-76.529 36.813 -78.089 38.477 -79.562 41.812 C-81.094 48.057 -80.782 53.107 -78.375 59.125 C-78.045 58.96 -78.045 58.96 -76.375 58.125 C-76.102 55.832 -76.102 55.832 -76 52.938 C-75.61 47.915 -74.899 44.927 -71.375 41.125 C-69.024 39.558 -66.894 38.351 -64.375 37.125 C-63.86 36.865 -63.86 36.865 -61.254 35.547 C-58.301 34.058 -55.341 32.586 -52.375 31.125 C-52.375 30.465 -52.375 29.805 -52.375 29.125 C-56.005 29.785 -59.635 30.445 -63.375 31.125 C-59.393 26.467 -55.801 24.869 -50 23.125 C-42.689 20.903 -37.062 18.307 -32 12.312 C-30.007 8.403 -29.675 5.48 -29.375 1.125 C-30.035 0.795 -30.695 0.465 -31.375 0.125 Z M-5.375 17.125 C-5.932 17.888 -6.489 18.651 -7.062 19.438 C-9.965 22.811 -12.242 23.615 -16.375 25.125 C-16.045 23.805 -15.715 22.485 -15.375 21.125 C-16.365 21.125 -17.355 21.125 -18.375 21.125 C-19.097 21.888 -19.819 22.651 -20.562 23.438 C-23.296 26.049 -24.041 26.46 -27.438 27.375 C-30.191 28.265 -31.154 28.792 -32.777 31.238 C-35.375 37.034 -35.375 37.034 -35.375 40.125 C-35.932 40.331 -36.489 40.537 -37.062 40.75 C-40.271 42.658 -42.651 44.823 -44.375 48.125 C-44.778 51.176 -44.681 54.068 -44.375 57.125 C-47.015 57.125 -49.655 57.125 -52.375 57.125 C-52.457 56.403 -52.54 55.681 -52.625 54.938 C-53.57 51.394 -54.71 49.65 -57.375 47.125 C-60.812 46 -60.812 46 -64.375 46.125 C-67.053 48.279 -68.838 50.05 -70.375 53.125 C-71.004 59.291 -69.589 63.932 -66.375 69.125 C-63.263 72.735 -60.584 74.817 -55.938 76 C-55.092 76.041 -54.246 76.083 -53.375 76.125 C-54.035 76.785 -54.695 77.445 -55.375 78.125 C-59.438 77.742 -63.379 76.93 -67.375 76.125 C-67.715 76.789 -68.056 77.453 -68.406 78.137 C-72.842 86.218 -72.842 86.218 -77.625 88.312 C-79.688 89.414 -79.688 89.414 -81.375 91.125 C-82.305 94.799 -82.647 98.421 -82.953 102.184 C-83.656 108.746 -85.932 114.727 -88.5 120.773 C-89.375 123.125 -89.375 123.125 -89.375 126.125 C-88.553 126.333 -87.73 126.54 -86.883 126.754 C-76.553 129.605 -69.851 134.102 -61.813 141.036 C-35.169 164.006 -35.169 164.006 -19.375 163.125 C-21.144 158.011 -24.133 153.795 -27.186 149.385 C-30.059 145.081 -31.951 141.485 -31.033 136.128 C-30.335 133.134 -29.506 130.184 -28.67 127.227 C-27.232 121.764 -27.232 121.764 -27.867 118.93 C-30.134 116.217 -32.814 114.073 -35.562 111.875 C-50.167 99.779 -50.167 99.779 -51.375 89.125 C-50.902 89.728 -50.429 90.332 -49.941 90.953 C-45.245 96.629 -41.335 99.785 -34.375 102.125 C-34.015 102.262 -34.015 102.262 -32.191 102.953 C-23.633 106.065 -12.22 109.488 -3.438 105.938 C-1.375 104.125 -1.375 104.125 -0.438 101.625 C-0.375 99.125 -0.375 99.125 -2.375 96.125 C-2.5 93.437 -2.5 93.437 -2.375 91.125 C-1.715 90.795 -1.055 90.465 -0.375 90.125 C-0.375 88.805 -0.375 87.485 -0.375 86.125 C-1.86 86.29 -1.86 86.29 -9.375 87.125 C-7.805 85.555 -5.836 84.946 -3.812 84.062 C-2.986 83.7 -2.16 83.338 -1.309 82.965 C-0.671 82.688 -0.032 82.411 0.625 82.125 C0.625 80.145 0.625 78.165 0.625 76.125 C-0.695 75.465 -2.015 74.805 -3.375 74.125 C-3.375 73.465 -3.375 72.805 -3.375 72.125 C-2.46 72.137 -1.545 72.148 -0.602 72.16 C0.587 72.169 1.775 72.178 3 72.188 C4.183 72.199 5.367 72.211 6.586 72.223 C9.625 72.125 9.625 72.125 11.625 71.125 C11.119 66.715 9.888 63.138 8.149 59.11 C4.398 50.39 2.655 42.459 2.012 33.016 C1.653 29.406 0.923 26.495 -0.375 23.125 C-1.695 23.125 -3.015 23.125 -4.375 23.125 C-4.045 21.145 -3.715 19.165 -3.375 17.125 C-4.035 17.125 -4.695 17.125 -5.375 17.125 Z " fill="#FFFFFF" transform="translate(353.375,125.875)"></path>
<path d="M0 0 C0.33 0.66 0.66 1.32 1 2 C-0.774 5.799 -2.923 9.354 -5 13 C-8.135 12.505 -8.135 12.505 -24 10 C-24 9.34 -24 8.68 -24 8 C-21.774 6.847 -19.545 5.702 -17.312 4.562 C-16.687 4.237 -16.061 3.912 -15.416 3.576 C-10.121 0.887 -5.896 -0.168 0 0 Z " fill="#FFFFFF" transform="translate(351,166)"></path>
<path d="M0 0 C14.115 11.778 23.554 28.298 25.355 46.613 C26.021 56.908 24 64.48 18 73 C15.537 75.495 13.083 77.347 10 79 C9.344 79.376 8.688 79.753 8.012 80.141 C6 81 6 81 2 81 C2.148 73.448 2.7 69.426 8 64 C11.098 59.032 11.515 54.999 11.438 49.312 C11.433 48.913 11.433 48.913 11.408 46.89 C11.016 33.747 4.776 22.787 -4.422 13.574 C-13.313 6.056 -23.264 1.576 -34.922 1.73 C-39.34 2.117 -42.576 3.147 -46 6 C-52.06 13.393 -52.756 20.665 -52 30 C-50.329 38.758 -47.556 45.999 -42 53 C-42.75 54.938 -42.75 54.938 -44 57 C-46.125 57.75 -46.125 57.75 -48 58 C-58.193 44.723 -63.324 30.784 -62 14 C-60.31 5.02 -56.353 -1.597 -49.32 -7.449 C-33.781 -17.835 -13.73 -9.498 0 0 Z " fill="#FFFFFF" transform="translate(465,194)"></path>
<path d="M0 0 C2.262 4.241 2.165 7.37 0.91 11.98 C-2.09 20.012 -8.276 25.315 -15.75 29.25 C-21.492 31.811 -27.247 32.471 -33.5 31.812 C-36.469 30.423 -38.197 29.116 -40.5 26.812 C-41.359 21.348 -41.048 16.224 -37.883 11.531 C-31.639 3.77 -24.482 -2.381 -14.375 -4.125 C-8.758 -4.216 -4.403 -3.852 0 0 Z " fill="#FFFFFF" transform="translate(454.5,252.1875)"></path>
<path d="M0 0 C2.35 2.35 2.319 2.919 2.375 6.125 C2.191 12.876 -0.553 17.667 -5 22.625 C-12.293 29.523 -21.797 33.337 -31.746 33.223 C-35.005 32.901 -37.285 31.788 -40 30 C-40.66 29.01 -41.32 28.02 -42 27 C-41.105 27.046 -40.211 27.093 -39.289 27.141 C-28.365 27.467 -20.812 25.558 -12 19 C-11.175 18.484 -10.35 17.969 -9.5 17.438 C-4.846 12.9 -1.271 6.415 0 0 Z " fill="#FFFFFF" transform="translate(460,261)"></path>
<path d="M0 0 C6.804 -0.175 6.804 -0.175 8.566 1.398 C8.895 2.051 9.224 2.703 9.562 3.375 C9.957 4.11 10.351 4.845 10.758 5.602 C11.168 6.393 11.578 7.185 12 8 C12.972 9.588 13.951 11.171 14.938 12.75 C24 27.909 24 27.909 24 32 C24.66 32 25.32 32 26 32 C26.241 31.171 26.482 30.342 26.73 29.488 C28.205 25.436 30.155 21.908 32.312 18.188 C33.121 16.774 33.93 15.359 34.738 13.945 C35.127 13.269 35.516 12.592 35.917 11.896 C37.693 8.787 39.408 5.645 41.125 2.504 C42 1 42 1 43 0 C45.31 0 47.62 0 50 0 C50 15.51 50 31.02 50 47 C48.02 47 46.04 47 44 47 C43 46 43 46 42.886 43.041 C42.892 41.747 42.897 40.454 42.902 39.121 C42.904 38.434 42.905 37.748 42.907 37.04 C42.912 34.839 42.925 32.638 42.938 30.438 C42.943 28.949 42.947 27.46 42.951 25.971 C42.962 22.314 42.979 18.657 43 15 C42.34 15 41.68 15 41 15 C40.891 15.389 40.891 15.389 40.34 17.355 C38.532 22.273 36.083 26.728 33.562 31.312 C33.072 32.231 32.582 33.149 32.076 34.096 C31.599 34.968 31.121 35.84 30.629 36.738 C30.197 37.533 29.764 38.327 29.319 39.146 C28 41 28 41 25 42 C22.134 41.118 21.131 40.194 19.444 37.693 C18.963 36.753 18.481 35.813 17.984 34.844 C17.456 33.822 16.927 32.799 16.383 31.746 C15.844 30.675 15.305 29.604 14.75 28.5 C14.196 27.429 13.641 26.358 13.07 25.254 C9 17.304 9 17.304 9 15 C8.34 15 7.68 15 7 15 C7.005 15.934 7.01 16.868 7.016 17.83 C7.033 21.283 7.045 24.736 7.055 28.19 C7.06 29.686 7.067 31.183 7.075 32.68 C7.088 34.827 7.093 36.974 7.098 39.121 C7.103 40.415 7.108 41.708 7.114 43.041 C7 46 7 46 6 47 C4 47.041 2 47.043 0 47 C-1.188 44.624 -1.088 43.287 -1.022 40.642 C-1.002 39.741 -0.982 38.841 -0.961 37.912 C-0.934 36.938 -0.907 35.964 -0.879 34.961 C-0.867 34.463 -0.867 34.463 -0.807 31.943 C-0.731 28.753 -0.647 25.564 -0.562 22.375 C-0.509 20.216 -0.457 18.057 -0.404 15.898 C-0.275 10.599 -0.14 5.299 0 0 Z " fill="#FFFFFF" transform="translate(197,337)"></path>
<path d="M0 0 C3 0.125 3 0.125 4 1.125 C4.093 2.537 4.117 3.954 4.114 5.369 C4.113 6.27 4.113 7.171 4.113 8.099 C4.108 9.078 4.103 10.058 4.098 11.066 C4.096 12.064 4.095 13.061 4.093 14.089 C4.088 17.288 4.075 20.488 4.062 23.688 C4.057 25.851 4.053 28.014 4.049 30.178 C4.038 35.494 4.021 40.809 4 46.125 C0.947 47.106 -0.947 47.106 -4 46.125 C-4.025 39.735 -4.043 33.344 -4.055 26.954 C-4.06 24.778 -4.067 22.602 -4.075 20.427 C-4.088 17.306 -4.093 14.186 -4.098 11.066 C-4.103 10.087 -4.108 9.108 -4.113 8.099 C-4.113 7.198 -4.113 6.298 -4.114 5.369 C-4.116 4.572 -4.118 3.775 -4.12 2.954 C-3.913 -0.191 -3.197 0.133 0 0 Z " fill="#FFFFFF" transform="translate(263,336.875)"></path>
<path d="M0 0 C7 0 7 0 9.082 1.73 C9.653 2.541 10.224 3.352 10.812 4.188 C11.144 4.641 11.144 4.641 12.824 6.938 C13.542 7.948 14.26 8.959 15 10 C16.69 12.243 18.408 14.465 20.125 16.688 C20.548 17.242 20.971 17.796 21.407 18.367 C23.723 21.395 26.102 24.331 28.625 27.188 C31 30 31 30 31 32 C31.66 32 32.32 32 33 32 C33 21.44 33 10.88 33 0 C35.31 0 37.62 0 40 0 C40 15.51 40 31.02 40 47 C33 46 33 46 30.699 43.953 C30.035 43.061 29.371 42.169 28.688 41.25 C27.932 40.26 27.177 39.27 26.398 38.25 C26.009 37.721 25.619 37.193 25.218 36.648 C23.543 34.381 21.821 32.152 20.099 29.921 C18.877 28.334 17.667 26.737 16.457 25.141 C13.745 21.674 10.864 18.342 8 15 C7.67 25.56 7.34 36.12 7 47 C4.69 47 2.38 47 0 47 C0 31.49 0 15.98 0 0 Z " fill="#FFFFFF" transform="translate(279,337)"></path>
<path d="M0 0 C3.774 -0.062 7.549 -0.124 11.438 -0.188 C12.609 -0.215 13.78 -0.242 14.986 -0.27 C23.081 -0.334 29.45 0.722 36.312 5.125 C41.191 10.344 43.218 15.475 43.375 22.625 C42.966 31.542 40.51 36.928 34 43 C24.361 49.357 10.613 47 0 47 C0 31.49 0 15.98 0 0 Z M7 7 C6.912 9.448 6.885 11.868 6.902 14.316 C6.904 15.047 6.905 15.779 6.907 16.532 C6.912 18.875 6.925 21.219 6.938 23.562 C6.943 25.148 6.947 26.733 6.951 28.318 C6.962 32.212 6.979 36.106 7 40 C9.01 40.046 11.019 40.093 13.029 40.138 C14.569 40.174 16.109 40.22 17.649 40.27 C23.241 40.332 27.328 39.38 31.645 35.535 C35.53 30.636 36.383 27.421 36.277 21.156 C35.595 15.848 33.201 12.065 29.25 8.562 C24.947 6.494 10.937 3.063 7 7 Z " fill="#FFFFFF" transform="translate(332,337)"></path>
<path d="M0 0 C3.188 1.562 3.188 1.562 5 4 C6.059 7.301 6.522 9.588 5.297 12.902 C3.443 16.382 1.443 19.049 -2 21 C-2.66 21 -3.32 21 -4 21 C-2.9 22.295 -1.795 23.586 -0.688 24.875 C-0.073 25.594 0.542 26.314 1.176 27.055 C3 29 3 29 6 31 C6.99 28.69 7.98 26.38 9 24 C10.98 24.33 12.96 24.66 15 25 C14.856 25.603 14.711 26.207 14.562 26.828 C14.47 27.228 14.47 27.228 14 29.25 C13.907 29.644 13.907 29.644 13.438 31.641 C13 34 13 34 13 38 C13 38.66 13 39.32 13 40 C13.99 40.33 14.98 40.66 16 41 C15.67 42.65 15.34 44.3 15 46 C11 46 11 46 9.25 44.5 C8.837 44.005 8.425 43.51 8 43 C7.278 43.289 6.556 43.577 5.812 43.875 C4.884 44.246 3.956 44.618 3 45 C2.625 45.173 2.625 45.173 0.727 46.051 C-5.358 48.169 -12.508 47.831 -18.562 45.812 C-22.849 42.625 -24.743 40.568 -25.625 35.188 C-25.382 30.073 -22.45 26.576 -19 23 C-18.01 22.34 -17.02 21.68 -16 21 C-16.289 20.423 -16.577 19.845 -16.875 19.25 C-17.246 18.507 -17.618 17.765 -18 17 C-18.196 16.701 -18.196 16.701 -19.188 15.188 C-20.451 11.786 -19.914 9.472 -19 6 C-13.338 -0.678 -8.434 -0.787 0 0 Z M-11.5 5.562 C-13 8 -13 8 -12.875 11.062 C-12 14 -12 14 -10 17 C-6.21 16.474 -3.782 15.682 -1 13 C0.093 10.581 0.091 9.396 -0.5 6.812 C-2 5 -2 5 -5.375 4 C-9 4 -9 4 -11.5 5.562 Z M-14.625 27.188 C-17.052 30.061 -18 31.278 -18 35 C-17 37.688 -17 37.688 -15 40 C-9.348 42.549 -5.621 42.096 0 40 C1.23 37.914 1.23 37.914 2 36 C0.238 34.157 -1.534 32.326 -3.312 30.5 C-3.812 29.975 -4.312 29.451 -4.826 28.91 C-6.161 27.549 -7.577 26.269 -9 25 C-12 25 -12 25 -14.625 27.188 Z " fill="#FFFFFF" transform="translate(424,337)"></path>
<path d="M0 0 C2.073 -0.031 2.073 -0.031 12.562 -0.188 C13.856 -0.215 15.15 -0.242 16.483 -0.27 C23.656 -0.322 29.099 -0.121 34.875 4.5 C37.532 8.043 37.359 11.762 37 16 C35 19.438 35 19.438 33 22 C33.433 22.389 33.866 22.779 34.312 23.18 C37.767 26.651 39.461 29.139 39.625 34.125 C39.399 37.294 38.979 39.043 37.562 41.938 C30.237 47.834 21.415 47.38 12.438 47.188 C8.333 47.126 4.229 47.064 0 47 C0 31.49 0 15.98 0 0 Z M7 6 C7 10.62 7 15.24 7 20 C9.73 20.081 12.457 20.141 15.188 20.188 C15.956 20.213 16.725 20.238 17.518 20.264 C22.158 20.323 25.274 20.097 29 17 C30 14.062 30 14.062 30 11 C28.288 7.833 27.463 7.154 24 6 C22.665 5.92 21.326 5.892 19.988 5.902 C19.231 5.906 18.474 5.909 17.693 5.912 C16.908 5.92 16.122 5.929 15.312 5.938 C14.515 5.942 13.718 5.947 12.896 5.951 C10.931 5.963 8.965 5.981 7 6 Z M8 25 C6.964 30.05 6.897 34.874 7 40 C10.416 40.145 13.832 40.234 17.25 40.312 C18.218 40.354 19.186 40.396 20.184 40.439 C27.352 40.563 27.352 40.563 30.676 37.676 C32.373 34.247 32.176 32.607 31 29 C29.364 26.872 28.482 26.096 25.823 25.568 C25.412 25.555 25.412 25.555 23.332 25.488 C22.439 25.453 21.547 25.417 20.627 25.381 C19.698 25.358 18.769 25.336 17.812 25.312 C16.872 25.278 15.932 25.244 14.963 25.209 C12.642 25.127 10.322 25.057 8 25 Z " fill="#FFFFFF" transform="translate(466,337)"></path>
<path d="M0 0 C2.31 0 4.62 0 7 0 C7 15.51 7 31.02 7 47 C4.69 47 2.38 47 0 47 C0 31.49 0 15.98 0 0 Z " fill="#FFFFFF" transform="translate(515,337)"></path>
<path d="M0 0 C12.21 0 24.42 0 37 0 C37 6.391 35.918 8.162 32.062 12.688 C31.564 13.296 31.065 13.905 30.552 14.532 C29.047 16.365 27.524 18.183 26 20 C24.415 21.936 22.831 23.873 21.25 25.812 C20.595 26.603 19.94 27.393 19.266 28.207 C16.116 32.089 13.069 36.054 10 40 C19.57 40 29.14 40 39 40 C39 41.98 39 43.96 39 46 C35.242 47.253 31.745 47.124 27.832 47.098 C27.435 47.097 27.435 47.097 25.424 47.093 C22.886 47.088 20.35 47.075 17.812 47.062 C16.092 47.057 14.371 47.053 12.65 47.049 C8.434 47.038 4.217 47.021 0 47 C-1.6 43.799 -0.032 41.277 1 38 C1.66 38 2.32 38 3 38 C3.227 37.474 3.454 36.948 3.688 36.406 C5.454 33.168 7.707 30.373 10 27.5 C10.483 26.89 10.965 26.28 11.462 25.651 C15.583 20.466 19.819 15.381 24.102 10.328 C26 8 26 8 27 6 C18.09 6 9.18 6 0 6 C0 4.02 0 2.04 0 0 Z " fill="#FFFFFF" transform="translate(532,337)"></path>
</svg>