<svg width="164" height="27" viewBox="0 0 164 27" fill="none" xmlns="http://www.w3.org/2000/svg">
<mask id="mask0_1674_46979" style="mask-type:luminance" maskUnits="userSpaceOnUse" x="0" y="0" width="164" height="25">
<path d="M164 0H0V24.1159H164V0Z" fill="white"/>
</mask>
<g mask="url(#mask0_1674_46979)">
<path d="M160.544 20.8315C161.438 20.8315 162.19 21.5391 162.19 22.4626C162.19 23.401 161.438 24.1085 160.544 24.1085C159.65 24.1085 158.891 23.401 158.891 22.4626C158.891 21.5391 159.643 20.8315 160.544 20.8315ZM160.544 23.8702C161.304 23.8702 161.892 23.2669 161.892 22.4626C161.892 21.6806 161.304 21.0773 160.544 21.0773C159.777 21.0773 159.189 21.6806 159.189 22.4626C159.189 23.2669 159.777 23.8702 160.544 23.8702ZM159.904 21.5167H160.641C161.095 21.5167 161.311 21.6955 161.311 22.0679C161.311 22.4104 161.095 22.5594 160.805 22.5892L161.356 23.4308H161.036L160.514 22.6041H160.202V23.4308H159.904V21.5167ZM160.202 22.3658H160.514C160.775 22.3658 161.021 22.3509 161.021 22.053C161.021 21.7997 160.805 21.7625 160.604 21.7625H160.209V22.3732L160.202 22.3658Z" fill="#555759"/>
<path d="M52.6035 0.133789H61.2727C64.0135 0.133789 66.2404 0.953044 67.6778 2.39047C68.944 3.65659 69.6664 5.47385 69.6664 7.66349V7.79755C69.6664 11.4991 67.6108 13.7931 64.6987 14.8208L71.8262 24.1082H67.2384L60.6546 15.6103C60.5875 15.6475 60.4833 15.6475 60.4162 15.6475H56.5806V24.1082H52.6035V0.133789ZM60.8631 12.0875C63.9465 12.0875 65.6595 10.4416 65.6595 7.93906V7.87203C65.6595 5.16849 63.9093 3.76086 60.9301 3.76086H56.5806V12.0875H60.8631Z" fill="#555759"/>
<path d="M79.9967 14.5602L71.9158 0.133789H76.4739L82.0224 10.516L87.6083 0.133789H92.0248L83.9738 14.5229V24.1157H79.9967V14.5602Z" fill="#555759"/>
<path d="M151.979 14.5602L143.891 0.133789H148.449L153.998 10.516L159.583 0.133789H164L155.949 14.5229V24.1157H151.972V14.5602H151.979Z" fill="#555759"/>
<path d="M11.1493 17.2712L3.97711 0.133789H0V24.1157H4.03669V9.99465L9.96512 24.1157H12.2665L18.2396 9.36903V24.1157H22.2614V0.133789H18.2545L11.1493 17.2712Z" fill="#555759"/>
<path d="M116.595 0.133789L108.157 10.1958H107.941V0.133789H103.911V24.1157H107.941V14.009H108.112L116.915 24.1157H121.942L111.329 12.1248L121.622 0.133789H116.595Z" fill="#555759"/>
<path d="M44.1578 24.1159H48.3062L39.5029 0H35.6673L26.864 24.1159H30.8709L32.3754 19.8558H42.6533L44.1578 24.1159ZM33.6489 16.251L37.5143 5.31026L41.3797 16.251H33.6489Z" fill="#555759"/>
<path d="M140.8 24.1159H144.949L136.138 0H132.302L123.499 24.1159H127.506L129.01 19.8558H139.288L140.793 24.1159H140.8ZM130.291 16.251L134.157 5.31026L138.022 16.251H130.291Z" fill="#555759"/>
</g>
</svg>
